<?xml version="1.0" encoding="UTF-8"?><svg id="Layer_2" xmlns="http://www.w3.org/2000/svg" viewBox="0 0 828.89 736.46"><defs><style>.cls-1{fill:#f8d253;}.cls-2{fill:#363636;}</style></defs><g id="Layer_1-2"><g><polygon class="cls-1" points="302.76 453.44 307.76 468.97 297.76 468.97 302.76 453.44"/><path class="cls-1" d="M370.99,570.1v36.22c0,6.64-5.41,12.04-12.05,12.04s-12.03-5.4-12.03-12.04v-36.22c0-6.64,5.4-12.04,12.04-12.04s12.04,5.4,12.04,12.04Z"/><path class="cls-1" d="M397.47,440.49v33.4c0,7.42-6.03,13.45-13.45,13.45h-10.63v-60.3h10.63c7.42,0,13.45,6.03,13.45,13.45Z"/><path class="cls-1" d="M805.28,700.35v12.51H137.19v-12.51c16.01-4.99,27.67-19.95,27.67-37.58s-11.66-32.59-27.67-37.58v-18.22c16.01-4.99,27.67-19.95,27.67-37.58s-11.66-32.59-27.67-37.58v-18.22c16.01-4.99,27.67-19.95,27.67-37.58s-11.66-32.59-27.67-37.58v-18.22c16.01-4.99,27.67-19.95,27.67-37.58s-11.66-32.59-27.67-37.58v-12.51H805.28v12.51c-16.01,4.99-27.67,19.95-27.67,37.58s11.66,32.59,27.67,37.58v18.22c-16.01,4.99-27.67,19.95-27.67,37.58s11.66,32.59,27.67,37.58v18.22c-16.01,4.99-27.67,19.95-27.67,37.58s11.66,32.59,27.67,37.58v18.22c-16.01,4.99-27.67,19.95-27.67,37.58s11.66,32.59,27.67,37.58Zm-96.9-16.53v-17.57c0-6.45-5.23-11.68-11.69-11.68s-11.68,5.23-11.68,11.68v17.57c0,6.45,5.23,11.67,11.68,11.67s11.69-5.22,11.69-11.67Zm0-50.78v-17.57c0-6.45-5.23-11.68-11.69-11.68s-11.68,5.23-11.68,11.68v17.57c0,6.45,5.23,11.68,11.68,11.68s11.69-5.23,11.69-11.68Zm0-50.78v-17.57c0-6.45-5.23-11.68-11.69-11.68s-11.68,5.23-11.68,11.68v17.57c0,6.45,5.23,11.68,11.68,11.68s11.69-5.23,11.69-11.68Zm0-50.77v-17.57c0-6.46-5.23-11.68-11.69-11.68s-11.68,5.22-11.68,11.68v17.57c0,6.45,5.23,11.67,11.68,11.67s11.69-5.22,11.69-11.67Zm0-50.78v-17.57c0-6.45-5.23-11.68-11.69-11.68s-11.68,5.23-11.68,11.68v17.57c0,6.45,5.23,11.68,11.68,11.68s11.69-5.23,11.69-11.68Zm0-50.78v-17.57c0-6.45-5.23-11.68-11.69-11.68s-11.68,5.23-11.68,11.68v17.57c0,6.45,5.23,11.68,11.68,11.68s11.69-5.23,11.69-11.68Zm0-50.78v-17.56c0-6.46-5.23-11.68-11.69-11.68s-11.68,5.22-11.68,11.68v17.56c0,6.46,5.23,11.69,11.68,11.69s11.69-5.23,11.69-11.69Zm-62.41-9.65c0-6.45-5.23-11.68-11.68-11.68H242.64c-6.45,0-11.68,5.23-11.68,11.68s5.23,11.68,11.68,11.68h391.65c6.45,0,11.68-5.23,11.68-11.68Zm0,306.4c0-6.45-5.23-11.68-11.68-11.68H242.64c-6.45,0-11.68,5.23-11.68,11.68s5.23,11.68,11.68,11.68h391.65c6.45,0,11.68-5.23,11.68-11.68Zm-33.16-260.54c0-6.45-5.22-11.68-11.68-11.68h-38.02c-6.45,0-11.68,5.23-11.68,11.68s5.23,11.68,11.68,11.68h7.33v71.98c0,6.45,5.23,11.68,11.68,11.68s11.68-5.23,11.68-11.68v-71.98h7.33c6.46,0,11.68-5.23,11.68-11.68Zm-59.42,131.02c0-6.45-5.23-11.68-11.68-11.68h-38.03c-6.45,0-11.68,5.23-11.68,11.68v83.66c0,6.45,5.23,11.68,11.68,11.68h38.03c6.45,0,11.68-5.23,11.68-11.68s-5.23-11.68-11.68-11.68h-26.35v-18.47h19.77c6.45,0,11.68-5.23,11.68-11.68s-5.23-11.68-11.68-11.68h-19.77v-18.47h26.35c6.45,0,11.68-5.23,11.68-11.68Zm-13.07-47.36v-83.66c0-6.45-5.23-11.68-11.68-11.68s-11.68,5.23-11.68,11.68v83.66c0,6.45,5.23,11.68,11.68,11.68s11.68-5.23,11.68-11.68Zm-36.22,0v-83.66c0-4.77-2.89-9.05-7.31-10.83-4.42-1.79-9.48-.7-12.78,2.73l-15.43,16.03-15.43-16.03c-3.31-3.43-8.36-4.52-12.79-2.73-4.41,1.78-7.31,6.06-7.31,10.83v83.66c0,6.45,5.23,11.68,11.68,11.68s11.68-5.23,11.68-11.68v-54.68l3.75,3.9c2.2,2.29,5.24,3.58,8.42,3.58s6.21-1.29,8.41-3.58l3.75-3.9v54.68c0,6.45,5.23,11.68,11.68,11.68s11.68-5.23,11.68-11.68Zm-26.53,131.02v-83.66c0-6.45-5.23-11.68-11.68-11.68s-11.68,5.23-11.68,11.68v39.38l-25.6-45.14c-2.61-4.62-8.02-6.89-13.14-5.54-5.12,1.36-8.7,5.99-8.7,11.3v83.66c0,6.45,5.23,11.68,11.68,11.68s11.68-5.23,11.68-11.68v-39.39l25.6,45.15c2.11,3.72,6.03,5.92,10.16,5.92,.99,0,1.99-.13,2.98-.39,5.13-1.35,8.7-5.99,8.7-11.29Zm-56.74-156.15v-33.4c0-20.3-16.51-36.81-36.81-36.81h-22.31c-6.45,0-11.68,5.23-11.68,11.68v83.66c0,6.45,5.23,11.68,11.68,11.68h22.31c20.3,0,36.81-16.51,36.81-36.81Zm-26.48,132.43v-36.22c0-19.52-15.89-35.4-35.41-35.4s-35.4,15.88-35.4,35.4v36.22c0,19.52,15.89,35.4,35.41,35.4s35.4-15.88,35.4-35.4Zm-61.05-96.18c6.14-1.98,9.52-8.56,7.54-14.7l-26.96-83.66c-1.56-4.83-6.05-8.1-11.12-8.1s-9.56,3.27-11.11,8.1l-26.97,83.66c-1.97,6.14,1.4,12.72,7.54,14.7,1.19,.38,2.4,.56,3.58,.56,4.94,0,9.52-3.15,11.12-8.1l3.31-10.27h25.06l3.31,10.27c1.98,6.14,8.57,9.51,14.7,7.54Z"/><path class="cls-1" d="M709.03,267.42l8.52,15.91c-3.27,3.66-5.88,7.96-7.63,12.68-1.77,4.77-.38,10.02,3.12,13.17H125.51c-6.45,0-11.68,5.23-11.68,11.68v34.11c0,6.45,5.23,11.67,11.68,11.67,8.82,0,15.99,7.18,15.99,15.99s-7.17,15.99-15.99,15.99c-6.45,0-11.68,5.23-11.68,11.68v38.04c0,6.45,5.23,11.68,11.68,11.68,8.82,0,15.99,7.17,15.99,15.99s-7.17,15.99-15.99,15.99c-1.56,0-3.04,.3-4.4,.86,.95-8.27-.61-16.6-4.56-23.98-4.91-9.18-12.93-15.78-22.57-18.61-5.95-1.74-12.09-1.91-17.96-.56l-8.51-15.9c10.95-12.24,13.63-31.05,5.38-46.43-4.91-9.18-12.92-15.78-22.56-18.6-5.96-1.75-12.09-1.92-17.96-.57l-5.85-10.91L580.74,27.91l5.84,10.91c-4.13,4.6-7.16,10.21-8.83,16.48-2.69,10.16-1.46,20.8,3.45,29.97s12.93,15.78,22.57,18.6c5.95,1.74,12.08,1.91,17.96,.57l8.5,15.87c-4.13,4.6-7.16,10.22-8.82,16.49-2.69,10.15-1.47,20.79,3.45,29.97,8.24,15.38,24.9,22.69,40.52,19.15l8.51,15.89c-4.13,4.6-7.16,10.22-8.83,16.49-2.69,10.15-1.46,20.79,3.45,29.96,8.24,15.39,24.9,22.7,40.52,19.16Zm-91.19,21.29c5.58-3.22,7.5-10.37,4.27-15.95l-8.65-14.98c-3.22-5.59-10.37-7.5-15.95-4.28-5.59,3.23-7.5,10.37-4.27,15.96l8.64,14.98c2.17,3.74,6.09,5.84,10.13,5.84,1.98,0,3.99-.51,5.83-1.57Zm-25.25-43.73c5.58-3.23,7.5-10.37,4.27-15.96l-8.78-15.21c-3.23-5.59-10.37-7.5-15.96-4.28-5.59,3.23-7.5,10.37-4.27,15.96l8.78,15.21c2.16,3.75,6.09,5.84,10.13,5.84,1.98,0,3.99-.5,5.83-1.56Zm-25.39-43.98c5.58-3.22,7.5-10.37,4.27-15.95l-8.78-15.22c-3.23-5.59-10.38-7.5-15.96-4.27-5.58,3.22-7.5,10.37-4.27,15.95l8.78,15.22c2.17,3.74,6.09,5.84,10.13,5.84,1.98,0,3.99-.5,5.83-1.57Zm-25.39-43.97c5.59-3.23,7.5-10.37,4.27-15.96l-8.78-15.21c-3.23-5.59-10.38-7.5-15.96-4.28-5.58,3.23-7.5,10.37-4.27,15.96l8.78,15.22c2.17,3.74,6.09,5.84,10.13,5.84,1.98,0,3.99-.51,5.83-1.57Z"/><path class="cls-2" d="M828.64,690.44v34.1c0,6.45-5.23,11.67-11.68,11.67H125.51c-6.45,0-11.68-5.22-11.68-11.67v-34.1c0-6.46,5.23-11.68,11.68-11.68,8.82,0,15.99-7.18,15.99-15.99s-7.17-15.99-15.99-15.99c-6.45,0-11.68-5.23-11.68-11.68v-38.04c0-6.45,5.23-11.68,11.68-11.68,8.82,0,15.99-7.18,15.99-15.99s-7.17-15.99-15.99-15.99c-6.45,0-11.68-5.23-11.68-11.68v-12.28c1.1-2.8,1.17-6.03,0-8.97v-8.46c2.79-3.89,4.88-8.34,6.16-13.17,.52-1.98,.9-3.98,1.12-5.98,1.36-.56,2.84-.86,4.4-.86,8.82,0,15.99-7.17,15.99-15.99s-7.17-15.99-15.99-15.99c-6.45,0-11.68-5.23-11.68-11.68v-38.04c0-6.45,5.23-11.68,11.68-11.68,8.82,0,15.99-7.17,15.99-15.99s-7.17-15.99-15.99-15.99c-6.45,0-11.68-5.22-11.68-11.67v-34.11c0-6.45,5.23-11.68,11.68-11.68H713.04c.92,.83,1.99,1.51,3.18,2,3.95,1.62,8.24,.71,11.26-2h89.48c6.45,0,11.68,5.23,11.68,11.68v34.11c0,6.45-5.23,11.67-11.68,11.67-8.81,0-15.99,7.18-15.99,15.99s7.18,15.99,15.99,15.99c6.45,0,11.68,5.23,11.68,11.68v38.04c0,6.45-5.23,11.68-11.68,11.68-8.81,0-15.99,7.17-15.99,15.99s7.18,15.99,15.99,15.99c6.45,0,11.68,5.23,11.68,11.68v38.04c0,6.45-5.23,11.68-11.68,11.68-8.81,0-15.99,7.17-15.99,15.99s7.18,15.99,15.99,15.99c6.45,0,11.68,5.23,11.68,11.68v38.04c0,6.45-5.23,11.68-11.68,11.68-8.81,0-15.99,7.17-15.99,15.99s7.18,15.99,15.99,15.99c6.45,0,11.68,5.22,11.68,11.68Zm-23.36,22.42v-12.51c-16.01-4.99-27.67-19.95-27.67-37.58s11.66-32.59,27.67-37.58v-18.22c-16.01-4.99-27.67-19.95-27.67-37.58s11.66-32.59,27.67-37.58v-18.22c-16.01-4.99-27.67-19.95-27.67-37.58s11.66-32.59,27.67-37.58v-18.22c-16.01-4.99-27.67-19.95-27.67-37.58s11.66-32.59,27.67-37.58v-12.51H137.19v12.51c16.01,4.99,27.67,19.95,27.67,37.58s-11.66,32.59-27.67,37.58v18.22c16.01,4.99,27.67,19.95,27.67,37.58s-11.66,32.59-27.67,37.58v18.22c16.01,4.99,27.67,19.95,27.67,37.58s-11.66,32.59-27.67,37.58v18.22c16.01,4.99,27.67,19.95,27.67,37.58s-11.66,32.59-27.67,37.58v12.51H805.28Z"/><path class="cls-2" d="M741.56,280.46c1.45,2.7,1.82,5.9,1.02,8.89-.79,2.99-2.68,5.53-5.25,7.06-3.09,1.84-5.41,4.64-6.7,8.12-.69,1.87-1.79,3.44-3.15,4.65h-14.44c-3.5-3.15-4.89-8.4-3.12-13.17,1.75-4.72,4.36-9.02,7.63-12.68l-8.52-15.91c-15.62,3.54-32.28-3.77-40.52-19.16-4.91-9.17-6.14-19.81-3.45-29.96,1.67-6.27,4.7-11.89,8.83-16.49l-8.51-15.89c-15.62,3.54-32.28-3.77-40.52-19.15-4.92-9.18-6.14-19.82-3.45-29.97,1.66-6.27,4.69-11.89,8.82-16.49l-8.5-15.87c-5.88,1.34-12.01,1.17-17.96-.57-9.64-2.82-17.66-9.43-22.57-18.6s-6.14-19.81-3.45-29.97c1.67-6.27,4.7-11.88,8.83-16.48l-5.84-10.91L26.52,357.3l5.85,10.91c5.87-1.35,12-1.18,17.96,.57,9.64,2.82,17.65,9.42,22.56,18.6,8.25,15.38,5.57,34.19-5.38,46.43l8.51,15.9c5.87-1.35,12.01-1.18,17.96,.56,9.64,2.83,17.66,9.43,22.57,18.61,3.95,7.38,5.51,15.71,4.56,23.98-4.27,1.73-7.28,5.93-7.28,10.82v8.33c-.83,1.16-1.71,2.27-2.66,3.32l2.08,3.87c.22,.42,.42,.84,.58,1.27v8.97c-.92,2.34-2.56,4.38-4.81,5.71-1.77,1.05-3.68,1.53-5.57,1.52-3.84-.04-7.56-2.18-9.58-5.96l-6.72-12.53c-1.45-2.7-1.81-5.9-1.02-8.89,.79-3,2.68-5.53,5.25-7.06,3.54-2.11,6.1-5.54,7.19-9.66,1.09-4.13,.6-8.45-1.4-12.18-2-3.72-5.25-6.41-9.17-7.55-3.92-1.15-8.03-.62-11.57,1.48-2.57,1.53-5.6,1.92-8.45,1.09-2.84-.83-5.25-2.82-6.7-5.52l-17.78-33.21c-1.45-2.7-1.82-5.9-1.03-8.89,.8-2.99,2.69-5.53,5.26-7.06,7.31-4.35,9.91-14.14,5.79-21.84-2-3.72-5.26-6.41-9.18-7.55-3.91-1.15-8.02-.62-11.56,1.48-5.36,3.18-12.13,1.2-15.15-4.43l-15.94-29.76c-1.45-2.71-1.82-5.91-1.03-8.9,.8-2.99,2.68-5.53,5.25-7.06L579.5,1.77c2.57-1.53,5.61-1.92,8.45-1.09,2.85,.83,5.26,2.82,6.71,5.52l15.94,29.76c3.01,5.63,1.12,12.77-4.23,15.95-3.54,2.11-6.1,5.54-7.19,9.67-1.09,4.12-.6,8.45,1.4,12.17,2,3.73,5.25,6.41,9.17,7.56,3.91,1.15,8.03,.62,11.57-1.49,2.56-1.53,5.6-1.92,8.45-1.08,2.84,.83,5.25,2.81,6.7,5.52l17.78,33.2c1.45,2.71,1.82,5.9,1.02,8.9-.79,2.99-2.68,5.53-5.25,7.05-3.54,2.11-6.09,5.54-7.19,9.66-1.09,4.13-.59,8.45,1.4,12.18,4.12,7.69,13.43,10.42,20.74,6.07,5.35-3.18,12.13-1.2,15.15,4.44l17.79,33.2c3.01,5.63,1.12,12.77-4.23,15.95-3.54,2.11-6.1,5.54-7.19,9.66-1.09,4.13-.6,8.45,1.4,12.18,4.12,7.69,13.42,10.41,20.74,6.07,5.35-3.19,12.13-1.2,15.15,4.43l17.78,33.21Z"/><path class="cls-2" d="M713.04,309.18h14.44c-3.02,2.71-7.31,3.62-11.26,2-1.19-.49-2.26-1.17-3.18-2Z"/><path class="cls-2" d="M708.38,666.25v17.57c0,6.45-5.23,11.67-11.69,11.67s-11.68-5.22-11.68-11.67v-17.57c0-6.45,5.23-11.68,11.68-11.68s11.69,5.23,11.69,11.68Z"/><path class="cls-2" d="M708.38,615.47v17.57c0,6.45-5.23,11.68-11.69,11.68s-11.68-5.23-11.68-11.68v-17.57c0-6.45,5.23-11.68,11.68-11.68s11.69,5.23,11.69,11.68Z"/><path class="cls-2" d="M708.38,564.69v17.57c0,6.45-5.23,11.68-11.69,11.68s-11.68-5.23-11.68-11.68v-17.57c0-6.45,5.23-11.68,11.68-11.68s11.69,5.23,11.69,11.68Z"/><path class="cls-2" d="M708.38,513.92v17.57c0,6.45-5.23,11.67-11.69,11.67s-11.68-5.22-11.68-11.67v-17.57c0-6.46,5.23-11.68,11.68-11.68s11.69,5.22,11.69,11.68Z"/><path class="cls-2" d="M708.38,463.14v17.57c0,6.45-5.23,11.68-11.69,11.68s-11.68-5.23-11.68-11.68v-17.57c0-6.45,5.23-11.68,11.68-11.68s11.69,5.23,11.69,11.68Z"/><path class="cls-2" d="M708.38,412.36v17.57c0,6.45-5.23,11.68-11.69,11.68s-11.68-5.23-11.68-11.68v-17.57c0-6.45,5.23-11.68,11.68-11.68s11.69,5.23,11.69,11.68Z"/><path class="cls-2" d="M708.38,361.59v17.56c0,6.46-5.23,11.69-11.69,11.69s-11.68-5.23-11.68-11.69v-17.56c0-6.46,5.23-11.68,11.68-11.68s11.69,5.22,11.69,11.68Z"/><path class="cls-2" d="M634.29,357.82c6.45,0,11.68,5.23,11.68,11.68s-5.23,11.68-11.68,11.68H242.64c-6.45,0-11.68-5.23-11.68-11.68s5.23-11.68,11.68-11.68h391.65Z"/><path class="cls-2" d="M634.29,664.22c6.45,0,11.68,5.23,11.68,11.68s-5.23,11.68-11.68,11.68H242.64c-6.45,0-11.68-5.23-11.68-11.68s5.23-11.68,11.68-11.68h391.65Z"/><path class="cls-2" d="M622.11,272.76c3.23,5.58,1.31,12.73-4.27,15.95-1.84,1.06-3.85,1.57-5.83,1.57-4.04,0-7.96-2.1-10.13-5.84l-8.64-14.98c-3.23-5.59-1.32-12.73,4.27-15.96,5.58-3.22,12.73-1.31,15.95,4.28l8.65,14.98Z"/><path class="cls-2" d="M601.13,403.68c6.46,0,11.68,5.23,11.68,11.68s-5.22,11.68-11.68,11.68h-7.33v71.98c0,6.45-5.23,11.68-11.68,11.68s-11.68-5.23-11.68-11.68v-71.98h-7.33c-6.45,0-11.68-5.23-11.68-11.68s5.23-11.68,11.68-11.68h38.02Z"/><path class="cls-2" d="M596.86,229.02c3.23,5.59,1.31,12.73-4.27,15.96-1.84,1.06-3.85,1.56-5.83,1.56-4.04,0-7.97-2.09-10.13-5.84l-8.78-15.21c-3.23-5.59-1.32-12.73,4.27-15.96,5.59-3.22,12.73-1.31,15.96,4.28l8.78,15.21Z"/><path class="cls-2" d="M571.47,185.05c3.23,5.58,1.31,12.73-4.27,15.95-1.84,1.07-3.85,1.57-5.83,1.57-4.04,0-7.96-2.1-10.13-5.84l-8.78-15.22c-3.23-5.58-1.31-12.73,4.27-15.95,5.58-3.23,12.73-1.32,15.96,4.27l8.78,15.22Z"/><path class="cls-2" d="M541.71,534.7c6.45,0,11.68,5.23,11.68,11.68s-5.23,11.68-11.68,11.68h-26.35v18.47h19.77c6.45,0,11.68,5.23,11.68,11.68s-5.23,11.68-11.68,11.68h-19.77v18.47h26.35c6.45,0,11.68,5.23,11.68,11.68s-5.23,11.68-11.68,11.68h-38.03c-6.45,0-11.68-5.23-11.68-11.68v-83.66c0-6.45,5.23-11.68,11.68-11.68h38.03Z"/><path class="cls-2" d="M546.08,141.07c3.23,5.59,1.32,12.73-4.27,15.96-1.84,1.06-3.85,1.57-5.83,1.57-4.04,0-7.96-2.1-10.13-5.84l-8.78-15.22c-3.23-5.59-1.31-12.73,4.27-15.96,5.58-3.22,12.73-1.31,15.96,4.28l8.78,15.21Z"/><path class="cls-2" d="M540.32,415.36v83.66c0,6.45-5.23,11.68-11.68,11.68s-11.68-5.23-11.68-11.68v-83.66c0-6.45,5.23-11.68,11.68-11.68s11.68,5.23,11.68,11.68Z"/><path class="cls-2" d="M504.1,415.36v83.66c0,6.45-5.23,11.68-11.68,11.68s-11.68-5.23-11.68-11.68v-54.68l-3.75,3.9c-2.2,2.29-5.24,3.58-8.41,3.58s-6.22-1.29-8.42-3.58l-3.75-3.9v54.68c0,6.45-5.23,11.68-11.68,11.68s-11.68-5.23-11.68-11.68v-83.66c0-4.77,2.9-9.05,7.31-10.83,4.43-1.79,9.48-.7,12.79,2.73l15.43,16.03,15.43-16.03c3.3-3.43,8.36-4.52,12.78-2.73,4.42,1.78,7.31,6.06,7.31,10.83Z"/><path class="cls-2" d="M477.57,546.38v83.66c0,5.3-3.57,9.94-8.7,11.29-.99,.26-1.99,.39-2.98,.39-4.13,0-8.05-2.2-10.16-5.92l-25.6-45.15v39.39c0,6.45-5.23,11.68-11.68,11.68s-11.68-5.23-11.68-11.68v-83.66c0-5.31,3.58-9.94,8.7-11.3,5.12-1.35,10.53,.92,13.14,5.54l25.6,45.14v-39.38c0-6.45,5.23-11.68,11.68-11.68s11.68,5.23,11.68,11.68Z"/><path class="cls-2" d="M420.83,440.49v33.4c0,20.3-16.51,36.81-36.81,36.81h-22.31c-6.45,0-11.68-5.23-11.68-11.68v-83.66c0-6.45,5.23-11.68,11.68-11.68h22.31c20.3,0,36.81,16.51,36.81,36.81Zm-23.36,33.4v-33.4c0-7.42-6.03-13.45-13.45-13.45h-10.63v60.3h10.63c7.42,0,13.45-6.03,13.45-13.45Z"/><path class="cls-2" d="M394.35,570.1v36.22c0,19.52-15.89,35.4-35.4,35.4s-35.41-15.88-35.41-35.4v-36.22c0-19.52,15.89-35.4,35.4-35.4s35.41,15.88,35.41,35.4Zm-23.36,36.22v-36.22c0-6.64-5.4-12.04-12.04-12.04s-12.04,5.4-12.04,12.04v36.22c0,6.64,5.39,12.04,12.03,12.04s12.05-5.4,12.05-12.04Z"/><path class="cls-2" d="M340.84,495.44c1.98,6.14-1.4,12.72-7.54,14.7-6.13,1.97-12.72-1.4-14.7-7.54l-3.31-10.27h-25.06l-3.31,10.27c-1.6,4.95-6.18,8.1-11.12,8.1-1.18,0-2.39-.18-3.58-.56-6.14-1.98-9.51-8.56-7.54-14.7l26.97-83.66c1.55-4.83,6.04-8.1,11.11-8.1s9.56,3.27,11.12,8.1l26.96,83.66Zm-33.08-26.47l-5-15.53-5,15.53h10Z"/><path class="cls-2" d="M121.11,492.86c-.22,2-.6,4-1.12,5.98-1.28,4.83-3.37,9.28-6.16,13.17v-8.33c0-4.89,3.01-9.09,7.28-10.82Z"/><path class="cls-2" d="M113.83,520.47c1.17,2.94,1.1,6.17,0,8.97v-8.97Z"/></g></g></svg>