<?xml version="1.0" encoding="UTF-8"?><svg id="Layer_2" xmlns="http://www.w3.org/2000/svg" viewBox="0 0 715.31 427.53"><defs><style>.cls-1{fill:#f8d253;}.cls-2{fill:#363636;}.cls-3{fill:#54ba4e;}</style></defs><g id="Layer_1-2"><g><path class="cls-1" d="M368.76,203.34l-27.92,23.25c-3.46,2.88-4.96,7.49-3.85,11.85l8.92,35.22-30.74-19.37c-1.9-1.2-4.06-1.8-6.23-1.8s-4.32,.6-6.22,1.8l-30.75,19.37,8.93-35.22c1.11-4.36-.39-8.97-3.85-11.85l-27.92-23.25,36.25-2.39c4.49-.3,8.41-3.15,10.08-7.32l13.48-33.75,13.49,33.75c1.66,4.17,5.58,7.02,10.07,7.32l36.26,2.39Z"/><path class="cls-3" d="M691.7,351.88v24.12c0,15.4-12.52,27.92-27.92,27.92H51.53c-15.39,0-27.92-12.52-27.92-27.92v-24.12c28.3-5.47,49.74-30.43,49.74-60.31s-21.44-54.83-49.74-60.3v-35c28.3-5.47,49.74-30.43,49.74-60.31s-21.44-54.83-49.74-60.3v-24.13c0-15.39,12.53-27.92,27.92-27.92H663.78c15.4,0,27.92,12.53,27.92,27.92v24.13c-28.3,5.47-49.74,30.43-49.74,60.3s21.44,54.84,49.74,60.31v35c-28.3,5.47-49.74,30.43-49.74,60.3s21.44,54.84,49.74,60.31Zm-123.8,22.55v-20.8c0-6.45-5.23-11.68-11.68-11.68s-11.68,5.23-11.68,11.68v20.8c0,6.45,5.23,11.68,11.68,11.68s11.68-5.23,11.68-11.68Zm0-60.1v-20.8c0-6.45-5.23-11.68-11.68-11.68s-11.68,5.23-11.68,11.68v20.8c0,6.45,5.23,11.68,11.68,11.68s11.68-5.23,11.68-11.68Zm0-60.11v-20.8c0-6.45-5.23-11.68-11.68-11.68s-11.68,5.23-11.68,11.68v20.8c0,6.45,5.23,11.68,11.68,11.68s11.68-5.23,11.68-11.68Zm0-60.11v-20.79c0-6.45-5.23-11.68-11.68-11.68s-11.68,5.23-11.68,11.68v20.79c0,6.45,5.23,11.68,11.68,11.68s11.68-5.23,11.68-11.68Zm0-60.1v-20.8c0-6.45-5.23-11.68-11.68-11.68s-11.68,5.23-11.68,11.68v20.8c0,6.45,5.23,11.68,11.68,11.68s11.68-5.23,11.68-11.68Zm0-60.11v-20.8c0-6.45-5.23-11.68-11.68-11.68s-11.68,5.23-11.68,11.68v20.8c0,6.45,5.23,11.68,11.68,11.68s11.68-5.23,11.68-11.68Zm-78.17-5.15c0-6.45-5.23-11.67-11.68-11.67H139.84c-6.45,0-11.68,5.22-11.68,11.67s5.23,11.69,11.68,11.69H478.05c6.45,0,11.68-5.23,11.68-11.69Zm0,48.65c0-6.45-5.23-11.68-11.68-11.68h-121.76c-6.45,0-11.68,5.23-11.68,11.68s5.23,11.68,11.68,11.68h121.76c6.45,0,11.68-5.23,11.68-11.68Zm0,47.73c0-6.45-5.23-11.68-11.68-11.68h-28.32c-6.45,0-11.68,5.23-11.68,11.68s5.23,11.68,11.68,11.68h28.32c6.45,0,11.68-5.23,11.68-11.68Zm0,48.64c0-6.45-5.23-11.68-11.68-11.68h-44.55c-6.45,0-11.68,5.23-11.68,11.68s5.23,11.68,11.68,11.68h44.55c6.45,0,11.68-5.23,11.68-11.68Zm0,48.63c0-6.45-5.23-11.68-11.68-11.68h-70.36c-6.45,0-11.68,5.23-11.68,11.68s5.23,11.68,11.68,11.68h70.36c6.45,0,11.68-5.23,11.68-11.68Zm0,47.73c0-6.45-5.23-11.68-11.68-11.68h-61.02c-6.45,0-11.68,5.23-11.68,11.68s5.23,11.68,11.68,11.68h61.02c6.45,0,11.68-5.22,11.68-11.68Zm0,48.65c0-6.45-5.23-11.68-11.68-11.68H139.84c-6.45,0-11.68,5.23-11.68,11.68s5.23,11.68,11.68,11.68H478.05c6.45,0,11.68-5.23,11.68-11.68Zm-83.56-156.19c3.67-3.05,5.12-8.04,3.64-12.58-1.48-4.55-5.57-7.73-10.34-8.05l-58.08-3.84-21.6-54.05c-1.77-4.44-6.07-7.35-10.85-7.35s-9.07,2.91-10.84,7.35l-21.6,54.05-58.08,3.84c-4.77,.32-8.86,3.5-10.34,8.05-1.48,4.54-.04,9.53,3.63,12.58l44.74,37.25-14.3,56.42c-1.18,4.63,.59,9.51,4.46,12.32,3.86,2.81,9.05,2.98,13.09,.43l49.24-31.03,49.25,31.03c1.91,1.2,4.07,1.8,6.23,1.8,2.41,0,4.82-.75,6.86-2.23,3.87-2.81,5.63-7.69,4.46-12.32l-14.3-56.42,44.73-37.25Zm-132.9-85.19c0-6.45-5.23-11.68-11.68-11.68h-121.75c-6.45,0-11.68,5.23-11.68,11.68s5.23,11.68,11.68,11.68h121.75c6.45,0,11.68-5.23,11.68-11.68Zm-51.39,145c0-6.45-5.23-11.68-11.68-11.68h-70.36c-6.45,0-11.68,5.23-11.68,11.68s5.23,11.68,11.68,11.68h70.36c6.45,0,11.68-5.23,11.68-11.68Zm-9.34,47.73c0-6.45-5.23-11.68-11.68-11.68h-61.02c-6.45,0-11.68,5.23-11.68,11.68s5.23,11.68,11.68,11.68h61.02c6.45,0,11.68-5.22,11.68-11.68Zm-16.47-96.36c0-6.45-5.23-11.68-11.68-11.68h-44.55c-6.45,0-11.68,5.23-11.68,11.68s5.23,11.68,11.68,11.68h44.55c6.45,0,11.68-5.23,11.68-11.68Zm-16.23-48.64c0-6.45-5.23-11.68-11.68-11.68h-28.32c-6.45,0-11.68,5.23-11.68,11.68s5.23,11.68,11.68,11.68h28.32c6.45,0,11.68-5.23,11.68-11.68Z"/><path class="cls-2" d="M715.06,341.31v34.69c0,28.28-23,51.29-51.28,51.29H51.53C23.25,427.29,.25,404.28,.25,376v-34.69c0-6.45,5.23-11.68,11.68-11.68,20.99,0,38.06-17.07,38.06-38.06s-17.07-38.06-38.06-38.06c-6.45,0-11.68-5.23-11.68-11.68v-56.13c0-6.45,5.23-11.68,11.68-11.68,20.99,0,38.06-17.07,38.06-38.06s-17.07-38.06-38.06-38.06c-6.45,0-11.68-5.23-11.68-11.68V51.53C.25,23.26,23.25,.25,51.53,.25H663.78c28.28,0,51.28,23.01,51.28,51.28v34.69c0,6.45-5.23,11.68-11.68,11.68-20.99,0-38.06,17.08-38.06,38.06s17.07,38.06,38.06,38.06c6.45,0,11.68,5.23,11.68,11.68v56.13c0,6.45-5.23,11.68-11.68,11.68-20.99,0-38.06,17.08-38.06,38.06s17.07,38.06,38.06,38.06c6.45,0,11.68,5.23,11.68,11.68Zm-23.36,34.69v-24.12c-28.3-5.47-49.74-30.43-49.74-60.31s21.44-54.83,49.74-60.3v-35c-28.3-5.47-49.74-30.43-49.74-60.31s21.44-54.83,49.74-60.3v-24.13c0-15.39-12.52-27.92-27.92-27.92H51.53c-15.39,0-27.92,12.53-27.92,27.92v24.13c28.3,5.47,49.74,30.43,49.74,60.3s-21.44,54.84-49.74,60.31v35c28.3,5.47,49.74,30.43,49.74,60.3s-21.44,54.84-49.74,60.31v24.12c0,15.4,12.53,27.92,27.92,27.92H663.78c15.4,0,27.92-12.52,27.92-27.92Z"/><path class="cls-2" d="M567.9,353.63v20.8c0,6.45-5.23,11.68-11.68,11.68s-11.68-5.23-11.68-11.68v-20.8c0-6.45,5.23-11.68,11.68-11.68s11.68,5.23,11.68,11.68Z"/><path class="cls-2" d="M567.9,293.53v20.8c0,6.45-5.23,11.68-11.68,11.68s-11.68-5.23-11.68-11.68v-20.8c0-6.45,5.23-11.68,11.68-11.68s11.68,5.23,11.68,11.68Z"/><path class="cls-2" d="M567.9,233.42v20.8c0,6.45-5.23,11.68-11.68,11.68s-11.68-5.23-11.68-11.68v-20.8c0-6.45,5.23-11.68,11.68-11.68s11.68,5.23,11.68,11.68Z"/><path class="cls-2" d="M567.9,173.32v20.79c0,6.45-5.23,11.68-11.68,11.68s-11.68-5.23-11.68-11.68v-20.79c0-6.45,5.23-11.68,11.68-11.68s11.68,5.23,11.68,11.68Z"/><path class="cls-2" d="M567.9,113.21v20.8c0,6.45-5.23,11.68-11.68,11.68s-11.68-5.23-11.68-11.68v-20.8c0-6.45,5.23-11.68,11.68-11.68s11.68,5.23,11.68,11.68Z"/><path class="cls-2" d="M567.9,53.1v20.8c0,6.45-5.23,11.68-11.68,11.68s-11.68-5.23-11.68-11.68v-20.8c0-6.45,5.23-11.68,11.68-11.68s11.68,5.23,11.68,11.68Z"/><path class="cls-2" d="M478.05,57.08c6.45,0,11.68,5.22,11.68,11.67s-5.23,11.69-11.68,11.69H139.84c-6.45,0-11.68-5.23-11.68-11.69s5.23-11.67,11.68-11.67H478.05Z"/><path class="cls-2" d="M478.05,105.72c6.45,0,11.68,5.23,11.68,11.68s-5.23,11.68-11.68,11.68h-121.76c-6.45,0-11.68-5.23-11.68-11.68s5.23-11.68,11.68-11.68h121.76Z"/><path class="cls-2" d="M478.05,153.45c6.45,0,11.68,5.23,11.68,11.68s-5.23,11.68-11.68,11.68h-28.32c-6.45,0-11.68-5.23-11.68-11.68s5.23-11.68,11.68-11.68h28.32Z"/><path class="cls-2" d="M478.05,202.09c6.45,0,11.68,5.23,11.68,11.68s-5.23,11.68-11.68,11.68h-44.55c-6.45,0-11.68-5.23-11.68-11.68s5.23-11.68,11.68-11.68h44.55Z"/><path class="cls-2" d="M478.05,250.72c6.45,0,11.68,5.23,11.68,11.68s-5.23,11.68-11.68,11.68h-70.36c-6.45,0-11.68-5.23-11.68-11.68s5.23-11.68,11.68-11.68h70.36Z"/><path class="cls-2" d="M478.05,298.45c6.45,0,11.68,5.23,11.68,11.68s-5.23,11.68-11.68,11.68h-61.02c-6.45,0-11.68-5.22-11.68-11.68s5.23-11.68,11.68-11.68h61.02Z"/><path class="cls-2" d="M478.05,347.1c6.45,0,11.68,5.23,11.68,11.68s-5.23,11.68-11.68,11.68H139.84c-6.45,0-11.68-5.23-11.68-11.68s5.23-11.68,11.68-11.68H478.05Z"/><path class="cls-2" d="M409.81,190.01c1.48,4.54,.03,9.53-3.64,12.58l-44.73,37.25,14.3,56.42c1.17,4.63-.59,9.51-4.46,12.32-2.04,1.48-4.45,2.23-6.86,2.23-2.16,0-4.32-.6-6.23-1.8l-49.25-31.03-49.24,31.03c-4.04,2.55-9.23,2.38-13.09-.43-3.87-2.81-5.64-7.69-4.46-12.32l14.3-56.42-44.74-37.25c-3.67-3.05-5.11-8.04-3.63-12.58,1.48-4.55,5.57-7.73,10.34-8.05l58.08-3.84,21.6-54.05c1.77-4.44,6.07-7.35,10.84-7.35s9.08,2.91,10.85,7.35l21.6,54.05,58.08,3.84c4.77,.32,8.86,3.5,10.34,8.05Zm-68.97,36.58l27.92-23.25-36.26-2.39c-4.49-.3-8.41-3.15-10.07-7.32l-13.49-33.75-13.48,33.75c-1.67,4.17-5.59,7.02-10.08,7.32l-36.25,2.39,27.92,23.25c3.46,2.88,4.96,7.49,3.85,11.85l-8.93,35.22,30.75-19.37c1.9-1.2,4.06-1.8,6.22-1.8s4.33,.6,6.23,1.8l30.74,19.37-8.92-35.22c-1.11-4.36,.39-8.97,3.85-11.85Z"/><path class="cls-2" d="M261.59,105.72c6.45,0,11.68,5.23,11.68,11.68s-5.23,11.68-11.68,11.68h-121.75c-6.45,0-11.68-5.23-11.68-11.68s5.23-11.68,11.68-11.68h121.75Z"/><path class="cls-2" d="M210.2,250.72c6.45,0,11.68,5.23,11.68,11.68s-5.23,11.68-11.68,11.68h-70.36c-6.45,0-11.68-5.23-11.68-11.68s5.23-11.68,11.68-11.68h70.36Z"/><path class="cls-2" d="M200.86,298.45c6.45,0,11.68,5.23,11.68,11.68s-5.23,11.68-11.68,11.68h-61.02c-6.45,0-11.68-5.22-11.68-11.68s5.23-11.68,11.68-11.68h61.02Z"/><path class="cls-2" d="M184.39,202.09c6.45,0,11.68,5.23,11.68,11.68s-5.23,11.68-11.68,11.68h-44.55c-6.45,0-11.68-5.23-11.68-11.68s5.23-11.68,11.68-11.68h44.55Z"/><path class="cls-2" d="M168.16,153.45c6.45,0,11.68,5.23,11.68,11.68s-5.23,11.68-11.68,11.68h-28.32c-6.45,0-11.68-5.23-11.68-11.68s5.23-11.68,11.68-11.68h28.32Z"/></g></g></svg>