<?xml version="1.0" encoding="UTF-8"?><svg id="Layer_2" xmlns="http://www.w3.org/2000/svg" viewBox="0 0 790.24 719.8"><defs><style>.cls-1{fill:#f8d253;}.cls-2{fill:#363636;}</style></defs><g id="Layer_1-2"><g><path class="cls-1" d="M486.15,113.48c11.66-6.73,20.01-17.6,23.49-30.61,2.48-9.23,2.3-18.75-.42-27.67l49.05-28.32c13.11-7.56,29.94-3.06,37.51,10.05l147.69,255.82c-1.57-.16-3.16-.23-4.77-.23h-67.96c-6.45,0-11.68,5.22-11.68,11.68,0,15.39-12.52,27.92-27.92,27.92s-27.92-12.53-27.92-27.92c0-6.46-5.23-11.68-11.68-11.68H126.46c-28.28,0-51.29,23-51.29,51.28v105.21l-48.28-83.63c-7.57-13.11-3.06-29.93,10.05-37.5L424.16,104.31c15.65,16.7,41.33,21.1,61.99,9.17Zm94.42,161.51c5.59-3.22,7.5-10.37,4.28-15.95l-9.86-17.08c-3.23-5.59-10.37-7.5-15.96-4.27-5.58,3.22-7.5,10.36-4.27,15.95l9.86,17.08c2.16,3.75,6.08,5.84,10.12,5.84,1.98,0,3.99-.51,5.83-1.57Zm-28.49-49.35c5.58-3.23,7.5-10.37,4.27-15.96l-9.86-17.08c-3.23-5.58-10.37-7.5-15.95-4.27-5.59,3.22-7.51,10.37-4.28,15.95l9.86,17.08c2.16,3.75,6.09,5.84,10.13,5.84,1.98,0,3.99-.5,5.83-1.56Zm-28.5-49.36c5.59-3.23,7.5-10.37,4.28-15.95l-9.86-17.08c-3.23-5.59-10.37-7.5-15.96-4.28-5.59,3.23-7.5,10.37-4.28,15.96l9.86,17.08c2.17,3.74,6.09,5.84,10.13,5.84,1.98,0,3.99-.51,5.83-1.57Z"/><path class="cls-2" d="M486.15,113.48c-20.66,11.93-46.34,7.53-61.99-9.17L36.94,327.88c-13.11,7.57-17.62,24.39-10.05,37.5l48.28,83.63v33.21c-.23,.01-.46,.02-.69,.02-3.97,0-7.83-2.06-9.96-5.74L7,376.87c-13.91-24.08-5.63-54.98,18.45-68.88L421.48,79.34c2.63-1.52,5.77-1.93,8.71-1.15,2.94,.79,5.45,2.72,6.97,5.35,3.67,6.35,9.59,10.9,16.67,12.79,7.09,1.9,14.49,.93,20.84-2.74,6.35-3.66,10.89-9.58,12.79-16.67,1.9-7.08,.92-14.48-2.74-20.83-3.18-5.49-1.29-12.52,4.2-15.69l57.87-33.41c24.08-13.9,54.98-5.62,68.88,18.46l155.55,269.43c1.81,3.14,1.97,6.79,.74,9.92-7.83-6.69-17.68-11.06-28.49-12.05L595.78,36.93c-7.57-13.11-24.4-17.61-37.51-10.05l-49.05,28.32c2.72,8.92,2.9,18.44,.42,27.67-3.48,13.01-11.83,23.88-23.49,30.61Z"/><path class="cls-2" d="M75.17,482.22v-33.21l9.24,16.01c3.17,5.49,1.29,12.51-4.2,15.68-1.6,.93-3.32,1.42-5.04,1.52Z"/><path class="cls-2" d="M743.47,292.75c10.81,.99,20.66,5.36,28.49,12.05-.91,2.34-2.59,4.4-4.94,5.76-5.5,3.17-12.52,1.29-15.69-4.2l-7.86-13.61Z"/><path class="cls-2" d="M751.33,306.36c3.17,5.49,10.19,7.37,15.69,4.2,2.35-1.36,4.03-3.42,4.94-5.76,11.03,9.4,18.03,23.4,18.03,39v324.46c0,28.28-23.01,51.28-51.29,51.28h-67.96c-6.45,0-11.68-5.22-11.68-11.67,0-15.4-12.52-27.93-27.92-27.93s-27.92,12.53-27.92,27.93c0,6.45-5.23,11.67-11.68,11.67H126.46c-28.28,0-51.29-23-51.29-51.28v-186.04c1.72-.1,3.44-.59,5.04-1.52,5.49-3.17,7.37-10.19,4.2-15.68l-9.24-16.01v-105.21c0-28.28,23.01-51.28,51.29-51.28h465.08c6.45,0,11.68,5.22,11.68,11.68,0,15.39,12.53,27.92,27.92,27.92s27.92-12.53,27.92-27.92c0-6.46,5.23-11.68,11.68-11.68h67.96c1.61,0,3.2,.07,4.77,.23l7.86,13.61Zm15.3,361.9V343.8c0-15.4-12.53-27.93-27.93-27.93h-57.62c-5.3,22.67-25.68,39.61-49.94,39.61s-44.64-16.94-49.94-39.61H126.46c-15.4,0-27.93,12.53-27.93,27.93v324.46c0,15.4,12.53,27.93,27.93,27.93h454.74c5.3-22.67,25.68-39.61,49.94-39.61s44.64,16.94,49.94,39.61h57.62c15.4,0,27.93-12.53,27.93-27.93Z"/><path class="cls-1" d="M766.63,343.8v324.46c0,15.4-12.53,27.93-27.93,27.93h-57.62c-5.3-22.67-25.68-39.61-49.94-39.61s-44.64,16.94-49.94,39.61H126.46c-15.4,0-27.93-12.53-27.93-27.93V343.8c0-15.4,12.53-27.93,27.93-27.93h454.74c5.3,22.67,25.68,39.61,49.94,39.61s44.64-16.94,49.94-39.61h57.62c15.4,0,27.93,12.53,27.93,27.93Zm-123.81,286.07v-19.72c0-6.45-5.23-11.68-11.68-11.68s-11.68,5.23-11.68,11.68v19.72c0,6.45,5.23,11.68,11.68,11.68s11.68-5.23,11.68-11.68Zm0-56.99v-19.72c0-6.45-5.23-11.68-11.68-11.68s-11.68,5.23-11.68,11.68v19.72c0,6.45,5.23,11.68,11.68,11.68s11.68-5.23,11.68-11.68Zm0-56.99v-19.72c0-6.45-5.23-11.68-11.68-11.68s-11.68,5.23-11.68,11.68v19.72c0,6.45,5.23,11.68,11.68,11.68s11.68-5.23,11.68-11.68Zm0-56.99v-19.72c0-6.45-5.23-11.68-11.68-11.68s-11.68,5.23-11.68,11.68v19.72c0,6.45,5.23,11.68,11.68,11.68s11.68-5.23,11.68-11.68Zm0-56.99v-19.72c0-6.45-5.23-11.68-11.68-11.68s-11.68,5.23-11.68,11.68v19.72c0,6.45,5.23,11.68,11.68,11.68s11.68-5.23,11.68-11.68Zm-63.59,56.22c0-6.45-5.23-11.68-11.68-11.68h-43.55c-6.45,0-11.68,5.23-11.68,11.68s5.23,11.68,11.68,11.68h10.1v84.12c0,6.46,5.22,11.68,11.67,11.68s11.68-5.22,11.68-11.68v-84.12h10.1c6.45,0,11.68-5.23,11.68-11.68Zm-2.72-50.35c0-6.45-5.23-11.68-11.68-11.68H161.13c-6.45,0-11.68,5.23-11.68,11.68s5.23,11.68,11.68,11.68h403.7c6.45,0,11.68-5.23,11.68-11.68Zm0,196.5c0-6.45-5.23-11.68-11.68-11.68H161.13c-6.45,0-11.68,5.23-11.68,11.68s5.23,11.68,11.68,11.68h403.7c6.45,0,11.68-5.23,11.68-11.68Zm-42.45-242.06c0-6.45-5.23-11.68-11.68-11.68H203.57c-6.45,0-11.68,5.23-11.68,11.68s5.23,11.68,11.68,11.68h318.81c6.45,0,11.68-5.23,11.68-11.68Zm0,287.62c0-6.45-5.23-11.68-11.68-11.68H203.57c-6.45,0-11.68,5.23-11.68,11.68s5.23,11.68,11.68,11.68h318.81c6.45,0,11.68-5.23,11.68-11.68Zm-28.98-191.71c0-6.45-5.23-11.68-11.68-11.68h-43.55c-6.45,0-11.68,5.23-11.68,11.68v95.8c0,6.45,5.23,11.68,11.68,11.68h43.55c6.45,0,11.68-5.23,11.68-11.68s-5.23-11.67-11.68-11.68h-31.87v-24.54h24.33c6.45,0,11.68-5.23,11.68-11.68s-5.23-11.68-11.68-11.68h-24.33v-24.54h31.87c6.45,0,11.68-5.23,11.68-11.68Zm-84.07,105.96c5.61-3.18,7.58-10.31,4.4-15.92l-25.02-44.12,24.77-39.74c3.41-5.48,1.74-12.68-3.73-16.09-5.47-3.42-12.68-1.75-16.09,3.73l-26.43,42.4h-6.31v-36.22c0-6.45-5.23-11.68-11.68-11.68s-11.68,5.23-11.68,11.68v95.8c0,6.45,5.23,11.68,11.68,11.68s11.68-5.23,11.68-11.68v-36.22h8.68l23.81,41.98c2.15,3.8,6.1,5.93,10.17,5.93,1.95,0,3.93-.49,5.75-1.53Zm-93.57-67.12c6.45,0,11.68-5.23,11.68-11.68,0-21.42-17.42-38.84-38.84-38.84s-38.85,17.42-38.85,38.84v41.48c0,21.42,17.43,38.84,38.85,38.84s38.84-17.42,38.84-38.84c0-6.45-5.23-11.68-11.68-11.68s-11.68,5.23-11.68,11.68c0,8.54-6.95,15.48-15.48,15.48s-15.49-6.94-15.49-15.48v-41.48c0-8.54,6.95-15.48,15.49-15.48s15.48,6.94,15.48,15.48c0,6.45,5.23,11.68,11.68,11.68Zm-79.02,56.96v-95.8c0-6.45-5.23-11.68-11.68-11.68s-11.68,5.23-11.68,11.68v95.8c0,6.45,5.23,11.68,11.68,11.68s11.68-5.23,11.68-11.68Zm-34.79-95.8c0-6.45-5.23-11.68-11.68-11.68h-43.55c-6.45,0-11.68,5.23-11.68,11.68s5.23,11.68,11.68,11.68h10.1v84.12c0,6.46,5.23,11.68,11.68,11.68s11.68-5.22,11.68-11.68v-84.12h10.09c6.45,0,11.68-5.23,11.68-11.68Z"/><path class="cls-2" d="M642.82,610.15v19.72c0,6.45-5.23,11.68-11.68,11.68s-11.68-5.23-11.68-11.68v-19.72c0-6.45,5.23-11.68,11.68-11.68s11.68,5.23,11.68,11.68Z"/><path class="cls-2" d="M642.82,553.16v19.72c0,6.45-5.23,11.68-11.68,11.68s-11.68-5.23-11.68-11.68v-19.72c0-6.45,5.23-11.68,11.68-11.68s11.68,5.23,11.68,11.68Z"/><path class="cls-2" d="M642.82,496.17v19.72c0,6.45-5.23,11.68-11.68,11.68s-11.68-5.23-11.68-11.68v-19.72c0-6.45,5.23-11.68,11.68-11.68s11.68,5.23,11.68,11.68Z"/><path class="cls-2" d="M642.82,439.18v19.72c0,6.45-5.23,11.68-11.68,11.68s-11.68-5.23-11.68-11.68v-19.72c0-6.45,5.23-11.68,11.68-11.68s11.68,5.23,11.68,11.68Z"/><path class="cls-2" d="M642.82,382.19v19.72c0,6.45-5.23,11.68-11.68,11.68s-11.68-5.23-11.68-11.68v-19.72c0-6.45,5.23-11.68,11.68-11.68s11.68,5.23,11.68,11.68Z"/><path class="cls-2" d="M584.85,259.04c3.22,5.58,1.31,12.73-4.28,15.95-1.84,1.06-3.85,1.57-5.83,1.57-4.04,0-7.96-2.09-10.12-5.84l-9.86-17.08c-3.23-5.59-1.31-12.73,4.27-15.95,5.59-3.23,12.73-1.32,15.96,4.27l9.86,17.08Z"/><path class="cls-2" d="M567.55,446.45c6.45,0,11.68,5.23,11.68,11.68s-5.23,11.68-11.68,11.68h-10.1v84.12c0,6.46-5.23,11.68-11.68,11.68s-11.67-5.22-11.67-11.68v-84.12h-10.1c-6.45,0-11.68-5.23-11.68-11.68s5.23-11.68,11.68-11.68h43.55Z"/><path class="cls-2" d="M564.83,396.1c6.45,0,11.68,5.23,11.68,11.68s-5.23,11.68-11.68,11.68H161.13c-6.45,0-11.68-5.23-11.68-11.68s5.23-11.68,11.68-11.68h403.7Z"/><path class="cls-2" d="M564.83,592.6c6.45,0,11.68,5.23,11.68,11.68s-5.23,11.68-11.68,11.68H161.13c-6.45,0-11.68-5.23-11.68-11.68s5.23-11.68,11.68-11.68h403.7Z"/><path class="cls-2" d="M556.35,209.68c3.23,5.59,1.31,12.73-4.27,15.96-1.84,1.06-3.85,1.56-5.83,1.56-4.04,0-7.97-2.09-10.13-5.84l-9.86-17.08c-3.23-5.58-1.31-12.73,4.28-15.95,5.58-3.23,12.72-1.31,15.95,4.27l9.86,17.08Z"/><path class="cls-2" d="M522.38,350.54c6.45,0,11.68,5.23,11.68,11.68s-5.23,11.68-11.68,11.68H203.57c-6.45,0-11.68-5.23-11.68-11.68s5.23-11.68,11.68-11.68h318.81Z"/><path class="cls-2" d="M522.38,638.16c6.45,0,11.68,5.23,11.68,11.68s-5.23,11.68-11.68,11.68H203.57c-6.45,0-11.68-5.23-11.68-11.68s5.23-11.68,11.68-11.68h318.81Z"/><path class="cls-2" d="M527.86,160.33c3.22,5.58,1.31,12.72-4.28,15.95-1.84,1.06-3.85,1.57-5.83,1.57-4.04,0-7.96-2.1-10.13-5.84l-9.86-17.08c-3.22-5.59-1.31-12.73,4.28-15.96,5.59-3.22,12.73-1.31,15.96,4.28l9.86,17.08Z"/><path class="cls-2" d="M493.4,446.45c6.45,0,11.68,5.23,11.68,11.68s-5.23,11.68-11.68,11.68h-31.87v24.54h24.33c6.45,0,11.68,5.23,11.68,11.68s-5.23,11.68-11.68,11.68h-24.33v24.54h31.87c6.45,.01,11.68,5.23,11.68,11.68s-5.23,11.68-11.68,11.68h-43.55c-6.45,0-11.68-5.23-11.68-11.68v-95.8c0-6.45,5.23-11.68,11.68-11.68h43.55Z"/><path class="cls-2" d="M425.41,548.17c3.18,5.61,1.21,12.74-4.4,15.92-1.82,1.04-3.8,1.53-5.75,1.53-4.07,0-8.02-2.13-10.17-5.93l-23.81-41.98h-8.68v36.22c0,6.45-5.23,11.68-11.68,11.68s-11.68-5.23-11.68-11.68v-95.8c0-6.45,5.23-11.68,11.68-11.68s11.68,5.23,11.68,11.68v36.22h6.31l26.43-42.4c3.41-5.48,10.62-7.15,16.09-3.73,5.47,3.41,7.14,10.61,3.73,16.09l-24.77,39.74,25.02,44.12Z"/><path class="cls-2" d="M339.12,485.29c0,6.45-5.23,11.68-11.68,11.68s-11.68-5.23-11.68-11.68c0-8.54-6.95-15.48-15.48-15.48s-15.49,6.94-15.49,15.48v41.48c0,8.54,6.95,15.48,15.49,15.48s15.48-6.94,15.48-15.48c0-6.45,5.23-11.68,11.68-11.68s11.68,5.23,11.68,11.68c0,21.42-17.42,38.84-38.84,38.84s-38.85-17.42-38.85-38.84v-41.48c0-21.42,17.43-38.84,38.85-38.84s38.84,17.42,38.84,38.84Z"/><path class="cls-2" d="M248.42,458.13v95.8c0,6.45-5.23,11.68-11.68,11.68s-11.68-5.23-11.68-11.68v-95.8c0-6.45,5.23-11.68,11.68-11.68s11.68,5.23,11.68,11.68Z"/><path class="cls-2" d="M201.95,446.45c6.45,0,11.68,5.23,11.68,11.68s-5.23,11.68-11.68,11.68h-10.09v84.12c0,6.46-5.23,11.68-11.68,11.68s-11.68-5.22-11.68-11.68v-84.12h-10.1c-6.45,0-11.68-5.23-11.68-11.68s5.23-11.68,11.68-11.68h43.55Z"/></g></g></svg>